<?xml version="1.0" encoding="UTF-8"?><svg id="a" xmlns="http://www.w3.org/2000/svg" viewBox="0 0 433.05 331.7"><defs><style>.b,.c{fill:#fff;}.d{fill:none;stroke:#c37026;stroke-width:17.72px;}.d,.e,.c{stroke-miterlimit:10;}.e,.c{stroke:#1a1a1a;}.e,.f,.g{fill:#1a1a1a;}.h{fill:#c37026;}.c{stroke-width:.5px;}.i{letter-spacing:-.05em;}.j{letter-spacing:-.06em;}.g{font-family:CerebriSans-Book, Cerebri Sans;font-size:50px;}</style></defs><text class="g" transform="translate(0 318)"><tspan x="0" y="0">H</tspan><tspan class="i" x="37.26" y="0">AW</tspan><tspan x="117.04" y="0">AII C</tspan><tspan class="j" x="232.32" y="0">A</tspan><tspan x="263.55" y="0">T CAFE</tspan></text><g><ellipse class="h" cx="194.83" cy="128.22" rx="88.75" ry="28.65"/><path class="e" d="M186.49,8.82c3.61,.85,3.51,8.19,8.4,18.81,2.53,5.51,3.61,5.19,6.78,12,2.46,5.28,3.68,9.5,4.7,13.04,3.51,12.27,5.26,18.41,4.17,26.09-.47,3.35-1.64,8.12-.52,14.61,.35,2.05,.63,3.59,1.57,5.22,3.31,5.76,11.64,6.15,14.09,7.3,8.87,4.17,17.06,11.95,27.13,26.61,2.59,3.77,21.26,42.52,16.17,77.74-.48,3.33-5.75,10.58-3.65,12.52,1.69,1.57-7.48,18.63-14.09,18.78-5.77,.13-8.86,.64-13.04,1.04-5.11,.49-11.82,.33-25.04,0,0,0-9.11-.23-29.74-1.04-3.17,1.66-6.18-.21-8.35-1.96-2.41-1.74-3.23-4.87-1.57-8.48,1.96-4.26,6.99-3.94,9.2-6.49,.57-1.38-1.55-3.87-1.9-9.68-.61-10.16-1.2-12.75-1.04-12,.6,2.95-2.01,9.14-3.13,16.7-.54,3.62-1.28,2.76-1.96,5.87-1.36,6.27-6.06,13.25-8.22,15.26-1.64,1.53-5.75-.35-10.17,.78-3.29,.84-8.87,2.27-10.54-3.35-.77-2.58-.27-5.41,1.3-7.6,2.46-3.45,4.52-1.65,7.15-3.66,2.48-1.9,2.78-5.13,3.13-14.09,.31-7.96,.44-14.38,.52-17.74,.33-12.81,.92-11.29,.52-14.09-1.33-9.32-5.66-10.32-7.83-20.87-1.44-7,.47-6.56-1.04-12.52-2.42-9.55,.16-6.33-3.93-16.23-2.53-6.12-6.26-7.3-7.83-17.74-1.03-6.88,.52-24.78,7.49-39.94,2.03-4.43,5.58-7.88,6.23-9,.55-.95-2.54-1.79-4.43-3.39s-3.48-4.41-4.69-7.07c-2.22-4.88,1.46-6.4,1.69-6.65,2.86-3.07,4.57-6.79,6-8.85,1.61-2.32,2.33-5.47,4.83-7.63,11.46-9.88,23.92-4.11,26.57-8.32,1.35-2.15,.51-1.54,2.69-7.34,.59-1.56,.39-7.13,2.38-6.66Z"/><path class="b" d="M155.2,52.13c10.89,12.7,18.07,28.74,19.5,45.46-.68-3.66-1.55-8.72-2.63-12.23-3.37-12.07-9.4-23.22-16.87-33.24h0Z"/><path class="b" d="M156.29,50.75c13.16,10.33,23.32,24.67,27.98,40.8-1.37-3.46-3.22-8.25-4.96-11.48-5.65-11.18-13.74-20.95-23.02-29.32h0Z"/><path class="b" d="M153.76,52.31c8.05,11.35,12.96,25.67,10.53,39.64-.2,.93-.77,3.28-.98,4.23,3.34-15.26-1.51-30.87-9.55-43.87h0Z"/><path class="c" d="M177,239.48c.13-1.36-.89-3.42-2.02-4.37-2.39-2.01-6.54-.72-8.09-2.48-.08-.09-.32-.38-.72-.72-.53-.45-1.28-1.09-2.22-1.17-1.09-.1-1.48,.64-2.35,.39-.58-.16-1.17-1.45-1.74-1.62-.59-.18-1.98,.44-2.3,.64-1.78,1.13-2.94,4.13-3.08,4.83-.48,2.33-.25,4.23,.74,6.2,.18,.36,1.11,2.28,4.5,3.05,1.75,.4,2.33-.8,6.59-1.22,2.46-.24,3.95-.3,5.41-.07,1.34,.22,2.59,.2,3.46-.13,1.27-.48,1.7-2.01,1.83-3.33Z"/><path class="f" d="M168,234.09c-.8,1.19-1.68,2.42-2.13,3.76-.46,1.38-.39,2.87-.68,4.3-.1-1.49-.26-3,.2-4.45,.5-1.44,1.48-2.64,2.61-3.61h0Z"/><path class="f" d="M160.95,231.72c-2.63,1.66-3.6,4.57-3.55,7.51-.01,.97,.1,1.95,.29,2.92-1.49-3.62-.75-8.84,3.26-10.43h0Z"/><path class="b" d="M212.68,141.72c.88,5.53,.56,11.24-.44,16.75-.46,2.76-1.09,5.6-2.53,8.15-2.86,4.92-7.64,8.32-11.67,12.16-6.26,6.12-7.79,13.82-7.97,22.37,.33,10.09-1.49,23.92,9.28,29.23,3.46,1.87,7.86,3.05,11.65,4.29,3.42,.99,6.76,2.87,8.79,5.88,1.09,1.72,2.72,3.12,4.77,3.43,1.35,.16,2.75-.13,4.14-.27-1.37,.26-2.71,.71-4.17,.64-1.47-.1-2.79-.81-3.92-1.73-1.07-.97-1.72-2.19-2.79-3.12-2-1.89-4.52-2.97-7.16-3.67-6.61-1.94-14.66-3.43-18.67-9.69-3.16-4.96-3.56-10.96-3.77-16.62-.2-5.64-.29-11.32,.68-16.91,.84-5.72,3.79-11.07,7.92-15.08,4.03-3.73,8.84-6.91,11.79-11.58,1.42-2.29,2.12-4.97,2.7-7.68,1.28-5.44,1.83-10.99,1.38-16.57h0Z"/><path class="c" d="M204.45,238.44c.13-1.36-.89-3.42-2.02-4.37-2.39-2.01-6.54-.72-8.09-2.48-.08-.09-.32-.38-.72-.72-.53-.45-1.28-1.09-2.22-1.17-1.09-.1-2.45,.61-3.32,.36-.58-.16-.2-1.41-.77-1.58-.59-.18-1.98,.44-2.3,.64-1.78,1.13-2.94,4.13-3.08,4.83-.48,2.33-.25,4.23,.74,6.2,.18,.36,1.12,2.23,4.5,3.05,3.95,.96,2.49,.33,6.99,.43,2.27,.05,3.82-.31,5.28-.08,1.34,.22,2.37,.06,3.23-.27,1.27-.48,1.65-3.51,1.78-4.83Z"/><path class="f" d="M194.83,232.8c-2.94,1.85-3.37,7.09-2.19,10.1-.55-.77-.84-1.72-.98-2.67-.3-2.65,.36-6.39,3.16-7.43h0Z"/><path class="f" d="M187.11,229.96c-3.51,2.33-4.36,7.17-2.93,10.96-2.17-3.57-1.09-9.21,2.93-10.96h0Z"/><path class="h" d="M285.92,159.43c-.29,16.44,2.23,109.18-86.52,109.18-82.31,0-92.75-92.45-92.88-108.44-.44-55.13-6.47-28.13,33.83-22.62,16.61,2.27,37.66,5.08,56.87,4.37,16.79-.62,39.84-3.88,52.43-7.27,25.03-6.73,37.3-35.32,36.26,24.78Z"/><path class="d" d="M284.81,157.52h-2.8c8.92,1.72,19.11,7.18,24.87,16.3,4.16,6.58,5.41,14.59,3.92,22.23h0c-3.28,16.84-18.55,29.2-35.63,27.62-.75-.07-4.31-.77-4.31-.77"/><path class="h" d="M103.37,159.43c.29,16.44-2.23,109.18,86.52,109.18,82.31,0,92.75-92.45,92.88-108.44,.44-55.13,6.47-28.13-33.83-22.62-16.61,2.27-37.66,5.08-56.87,4.37-16.79-.62-39.84-3.88-52.43-7.27-25.03-6.73-37.3-35.32-36.26,24.78Z"/></g></svg>