<?xml version="1.0" encoding="utf-8"?>
<!-- Generator: Adobe Illustrator 26.2.1, SVG Export Plug-In . SVG Version: 6.00 Build 0)  -->
<svg version="1.1" id="a" xmlns="http://www.w3.org/2000/svg" xmlns:xlink="http://www.w3.org/1999/xlink" x="0px" y="0px"
	 viewBox="0 0 433 331.7" style="enable-background:new 0 0 433 331.7;" xml:space="preserve">
<style type="text/css">
	.st0{enable-background:new    ;}
	.st1{fill:#FFFFFF;}
	.st2{fill:#C37026;}
	.st3{fill:#FFFFFF;stroke:#1A1A1A;stroke-width:0.5;stroke-miterlimit:10;}
	.st4{fill:#1A1A1A;}
	.st5{fill:none;stroke:#C37026;stroke-width:17.72;stroke-miterlimit:10;}
</style>
<g class="st0">
	<path class="st1" d="M71.8,313.9l-0.6-13.3l-4,0.8c0.1,3.5,0.4,7,0.8,10.3l-7.9,2.2l-1.5-34.5l8.7-1.5c-0.2,5-0.4,9.2-0.4,12.8
		c0,1.4,0,2.8,0.1,4.2l3.9-0.9l-0.6-14.6l8.7-1.5c-0.2,5.7-0.4,11.2-0.4,16.9c0,5.7,0.4,11.4,1,17L71.8,313.9z"/>
	<path class="st1" d="M94.9,314.6l-0.5-6.1l-3.2,0.6l-0.1,4.4l-9.9,1.5c2.2-12,3.5-23.8,4.1-35.3l14.4-2.5
		c0.4,9.6,2.1,21.3,5.1,35.1L94.9,314.6z M93.8,302l-1.7-18.5h0l-0.6,18.9L93.8,302z"/>
	<path class="st1" d="M133.2,277.5c-2,11.2-2.8,22.5-2.7,34.1l-10.6,1.9l-2-18l-1,16.6l-10,1.9c-1.1-12.7-2.7-23.9-4.9-33.7l8.9-1.8
		l2.6,21.4l1.3-23.7l4.9-0.8l3,30.2L124,279L133.2,277.5z"/>
	<path class="st1" d="M145.6,314.6l-0.5-6.1l-3.2,0.6l-0.1,4.4l-9.9,1.5c2.1-12,3.5-23.8,4.1-35.3l14.4-2.5
		c0.4,9.6,2.1,21.3,5.1,35.1L145.6,314.6z M144.4,302l-1.7-18.5h0l-0.6,18.9L144.4,302z"/>
	<path class="st1" d="M158.5,313.9l-1.4-34.5l8-1.5c-0.2,5.7-0.4,11.2-0.3,16.9c0,5.7,0.4,11.4,0.9,17L158.5,313.9z"/>
	<path class="st1" d="M170.4,313.9l-1.4-34.5l8-1.5c-0.2,5.7-0.4,11.2-0.3,16.9c0.1,5.7,0.4,11.4,0.9,17L170.4,313.9z"/>
	<path class="st1" d="M218,288.6c-0.8-0.8-1.8-1.2-2.9-1.2c-1.8,0-3.2,1.5-4.5,4.5c-1,2.5-1.5,4.7-1.5,6.8c0,3.8,1.2,6.2,3.6,7.3
		c0.6,0.2,1.2,0.4,1.7,0.4c1.8,0,3.3-1.2,4.6-3.8l2.8,5.8c-2.5,3.6-5.3,5.4-8.7,5.4c-4,0-7-2.2-9.3-6.5c-1.8-3.6-2.8-7.5-2.7-11.8
		c0-4.2,1-8.2,3-11.8c2.4-4.4,5.5-6.6,9.4-6.6c3.4,0,6.3,1.9,8.7,5.5L218,288.6z"/>
	<path class="st1" d="M236.3,314.6l-0.6-6.1l-3.1,0.6l-0.1,4.4l-9.9,1.5c2.2-12,3.5-23.8,4.1-35.3l14.4-2.5c0.3,9.6,2,21.3,5.1,35.1
		L236.3,314.6z M235.2,302l-1.7-18.5h0l-0.5,18.9L235.2,302z"/>
	<path class="st1" d="M264.8,286.4l-6.4,0.5c0,1.8,0,3.5,0,5.3c0,7.1,0.3,13.6,1,19.6l-7.8,2.2l-1-26l-5,0.9l-2.6-9.2l20.2-2.4
		L264.8,286.4z"/>
	<path class="st1" d="M303.4,288.6c-0.8-0.8-1.8-1.2-2.8-1.2c-1.8,0-3.2,1.5-4.5,4.5c-1,2.5-1.5,4.7-1.5,6.8c0,3.8,1.2,6.2,3.6,7.3
		c0.6,0.2,1.2,0.4,1.7,0.4c1.8,0,3.2-1.2,4.5-3.8l2.8,5.8c-2.5,3.6-5.3,5.4-8.7,5.4c-4,0-7-2.2-9.3-6.5c-1.8-3.6-2.8-7.5-2.7-11.8
		c0-4.2,1-8.2,3-11.8c2.4-4.4,5.5-6.6,9.4-6.6c3.4,0,6.3,1.9,8.7,5.5L303.4,288.6z"/>
	<path class="st1" d="M321.8,314.6l-0.6-6.1l-3.1,0.6l-0.1,4.4l-9.9,1.5c2.2-12,3.5-23.8,4.1-35.3l14.4-2.5c0.3,9.6,2,21.3,5.1,35.1
		L321.8,314.6z M320.6,302l-1.7-18.5h0l-0.5,18.9L320.6,302z"/>
	<path class="st1" d="M350.3,297c-3,0.5-6,1.1-9.1,1.8c0.1,4.4,0.5,8.7,0.9,13l-8,2.2l-1.7-35l16.3-2.4l1.3,9.1
		c-3,0.2-5.9,0.5-8.9,1.1c-0.1,0.9-0.1,1.8-0.1,2.6v2.7l8.2-1.8L350.3,297z"/>
	<path class="st1" d="M371,310.5c-4.5,0.4-10.2,1.6-17.1,3.4l-1.7-35l15.8-2.4l1.3,9.1c-3,0.2-5.8,0.6-8.6,1.1c0,0.9,0,1.8,0,2.8
		v2.8l7.5-1.7l1,6.8c-1.4,0.2-2.8,0.5-4.2,0.8l-4.2,0.9c0,0.7,0,1.3,0,2l0.1,2l8.8-1.3L371,310.5z"/>
</g>
<ellipse class="st2" cx="194.8" cy="128.2" rx="88.8" ry="28.6"/>
<path class="st1" d="M186.5,8.8c3.6,0.9,3.5,8.2,8.4,18.8c2.5,5.5,3.6,5.2,6.8,12c2.5,5.3,3.7,9.5,4.7,13
	c3.5,12.3,5.3,18.4,4.2,26.1c-0.5,3.3-1.6,8.1-0.5,14.6c0.4,2.1,0.6,3.6,1.6,5.2c3.3,5.8,11.6,6.2,14.1,7.3
	c8.9,4.2,17.1,11.9,27.1,26.6c2.6,3.8,21.3,42.5,16.2,77.7c-0.5,3.3-5.8,10.6-3.6,12.5c1.7,1.6-7.5,18.6-14.1,18.8
	c-5.8,0.1-8.9,0.6-13,1c-5.1,0.5-11.8,0.3-25,0c0,0-9.1-0.2-29.7-1c-3.2,1.7-6.2-0.2-8.4-2c-2.4-1.7-3.2-4.9-1.6-8.5
	c2-4.3,7-3.9,9.2-6.5c0.6-1.4-1.6-3.9-1.9-9.7c-0.6-10.2-1.2-12.8-1-12c0.6,2.9-2,9.1-3.1,16.7c-0.5,3.6-1.3,2.8-2,5.9
	c-1.4,6.3-6.1,13.2-8.2,15.3c-1.6,1.5-5.8-0.4-10.2,0.8c-3.3,0.8-8.9,2.3-10.5-3.4c-0.8-2.6-0.3-5.4,1.3-7.6
	c2.5-3.4,4.5-1.6,7.1-3.7c2.5-1.9,2.8-5.1,3.1-14.1c0.3-8,0.4-14.4,0.5-17.7c0.3-12.8,0.9-11.3,0.5-14.1c-1.3-9.3-5.7-10.3-7.8-20.9
	c-1.4-7,0.5-6.6-1-12.5c-2.4-9.6,0.2-6.3-3.9-16.2c-2.5-6.1-6.3-7.3-7.8-17.7c-1-6.9,0.5-24.8,7.5-39.9c2-4.4,5.6-7.9,6.2-9
	c0.6-1-2.5-1.8-4.4-3.4s-3.5-4.4-4.7-7.1c-2.2-4.9,1.5-6.4,1.7-6.7c2.9-3.1,4.6-6.8,6-8.8c1.6-2.3,2.3-5.5,4.8-7.6
	c11.5-9.9,23.9-4.1,26.6-8.3c1.4-2.1,0.5-1.5,2.7-7.3C184.7,13.9,184.5,8.3,186.5,8.8L186.5,8.8z"/>
<path d="M155.2,52.1c10.9,12.7,18.1,28.7,19.5,45.5c-0.7-3.7-1.6-8.7-2.6-12.2C168.7,73.3,162.7,62.1,155.2,52.1L155.2,52.1
	L155.2,52.1z"/>
<path d="M156.3,50.8c13.2,10.3,23.3,24.7,28,40.8c-1.4-3.5-3.2-8.2-5-11.5C173.7,68.9,165.6,59.1,156.3,50.8L156.3,50.8L156.3,50.8z
	"/>
<path d="M153.8,52.3c8.1,11.4,13,25.7,10.5,39.6c-0.2,0.9-0.8,3.3-1,4.2C166.6,80.9,161.8,65.3,153.8,52.3L153.8,52.3z"/>
<path class="st3" d="M177,239.5c0.1-1.4-0.9-3.4-2-4.4c-2.4-2-6.5-0.7-8.1-2.5c-0.1-0.1-0.3-0.4-0.7-0.7c-0.5-0.4-1.3-1.1-2.2-1.2
	c-1.1-0.1-1.5,0.6-2.4,0.4c-0.6-0.2-1.2-1.4-1.7-1.6c-0.6-0.2-2,0.4-2.3,0.6c-1.8,1.1-2.9,4.1-3.1,4.8c-0.5,2.3-0.2,4.2,0.7,6.2
	c0.2,0.4,1.1,2.3,4.5,3.1c1.8,0.4,2.3-0.8,6.6-1.2c2.5-0.2,3.9-0.3,5.4-0.1c1.3,0.2,2.6,0.2,3.5-0.1
	C176.4,242.3,176.9,240.8,177,239.5L177,239.5z"/>
<path class="st4" d="M168,234.1c-0.8,1.2-1.7,2.4-2.1,3.8c-0.5,1.4-0.4,2.9-0.7,4.3c-0.1-1.5-0.3-3,0.2-4.4
	C165.9,236.3,166.9,235.1,168,234.1L168,234.1z"/>
<path class="st4" d="M160.9,231.7c-2.6,1.7-3.6,4.6-3.6,7.5c0,1,0.1,1.9,0.3,2.9C156.2,238.5,156.9,233.3,160.9,231.7L160.9,231.7
	L160.9,231.7z"/>
<path class="st1" d="M212.7,141.7c0.9,5.5,0.6,11.2-0.4,16.8c-0.5,2.8-1.1,5.6-2.5,8.1c-2.9,4.9-7.6,8.3-11.7,12.2
	c-6.3,6.1-7.8,13.8-8,22.4c0.3,10.1-1.5,23.9,9.3,29.2c3.5,1.9,7.9,3.1,11.6,4.3c3.4,1,6.8,2.9,8.8,5.9c1.1,1.7,2.7,3.1,4.8,3.4
	c1.4,0.2,2.8-0.1,4.1-0.3c-1.4,0.3-2.7,0.7-4.2,0.6c-1.5-0.1-2.8-0.8-3.9-1.7c-1.1-1-1.7-2.2-2.8-3.1c-2-1.9-4.5-3-7.2-3.7
	c-6.6-1.9-14.7-3.4-18.7-9.7c-3.2-5-3.6-11-3.8-16.6c-0.2-5.6-0.3-11.3,0.7-16.9c0.8-5.7,3.8-11.1,7.9-15.1c4-3.7,8.8-6.9,11.8-11.6
	c1.4-2.3,2.1-5,2.7-7.7C212.6,152.8,213.1,147.3,212.7,141.7L212.7,141.7L212.7,141.7z"/>
<path class="st3" d="M204.4,238.4c0.1-1.4-0.9-3.4-2-4.4c-2.4-2-6.5-0.7-8.1-2.5c-0.1-0.1-0.3-0.4-0.7-0.7c-0.5-0.4-1.3-1.1-2.2-1.2
	c-1.1-0.1-2.4,0.6-3.3,0.4c-0.6-0.2-0.2-1.4-0.8-1.6c-0.6-0.2-2,0.4-2.3,0.6c-1.8,1.1-2.9,4.1-3.1,4.8c-0.5,2.3-0.2,4.2,0.7,6.2
	c0.2,0.4,1.1,2.2,4.5,3.1c3.9,1,2.5,0.3,7,0.4c2.3,0.1,3.8-0.3,5.3-0.1c1.3,0.2,2.4,0.1,3.2-0.3
	C203.9,242.8,204.3,239.8,204.4,238.4L204.4,238.4z"/>
<path class="st4" d="M194.8,232.8c-2.9,1.9-3.4,7.1-2.2,10.1c-0.6-0.8-0.8-1.7-1-2.7C191.4,237.6,192,233.8,194.8,232.8L194.8,232.8
	L194.8,232.8z"/>
<path class="st4" d="M187.1,230c-3.5,2.3-4.4,7.2-2.9,11C182,237.4,183.1,231.7,187.1,230L187.1,230z"/>
<path class="st2" d="M285.9,159.4c-0.3,16.4,2.2,109.2-86.5,109.2c-82.3,0-92.8-92.4-92.9-108.4c-0.4-55.1-6.5-28.1,33.8-22.6
	c16.6,2.3,37.7,5.1,56.9,4.4c16.8-0.6,39.8-3.9,52.4-7.3C274.7,127.9,287,99.3,285.9,159.4L285.9,159.4z"/>
<path class="st5" d="M284.8,157.5H282c8.9,1.7,19.1,7.2,24.9,16.3c4.2,6.6,5.4,14.6,3.9,22.2l0,0c-3.3,16.8-18.5,29.2-35.6,27.6
	c-0.8-0.1-4.3-0.8-4.3-0.8"/>
<path class="st2" d="M103.4,159.4c0.3,16.4-2.2,109.2,86.5,109.2c82.3,0,92.8-92.4,92.9-108.4c0.4-55.1,6.5-28.1-33.8-22.6
	c-16.6,2.3-37.7,5.1-56.9,4.4c-16.8-0.6-39.8-3.9-52.4-7.3C114.6,127.9,102.3,99.3,103.4,159.4L103.4,159.4z"/>
</svg>
